<?xml version="1.0" encoding="UTF-8"?>
<svg version="1.1" xmlns="http://www.w3.org/2000/svg" width="1024" height="1024">
<path d="M0 0 C337.92 0 675.84 0 1024 0 C1024 337.92 1024 675.84 1024 1024 C686.08 1024 348.16 1024 0 1024 C0 686.08 0 348.16 0 0 Z " fill="#FEFEFE" transform="translate(0,0)"/>
<path d="M0 0 C1.50121099 -0.00461262 3.00241747 -0.01096797 4.50361454 -0.01890898 C8.61653012 -0.03557635 12.72907348 -0.02736781 16.84199023 -0.0149641 C21.28246224 -0.00590512 25.72287073 -0.01988765 30.16333008 -0.03088379 C38.85789285 -0.04866542 47.55231746 -0.04483035 56.24688564 -0.03323323 C63.31469885 -0.02419662 70.38247335 -0.0229759 77.45029068 -0.02732849 C78.95968119 -0.02824789 78.95968119 -0.02824789 80.49956445 -0.02918586 C82.54384287 -0.03046478 84.58812129 -0.03176163 86.63239969 -0.03307623 C105.80005136 -0.04448128 124.96762649 -0.03137008 144.1352656 -0.00987476 C160.57484473 0.0079907 177.01431086 0.00489651 193.45388794 -0.0135498 C212.55024072 -0.03496721 231.64652641 -0.04337692 250.74288952 -0.03110075 C252.78022392 -0.02982658 254.81755832 -0.02856909 256.85489273 -0.02732849 C258.3584464 -0.02640284 258.3584464 -0.02640284 259.8923749 -0.02545848 C266.94903737 -0.02200779 274.00565721 -0.027828 281.06231308 -0.0372467 C289.66603068 -0.04847796 298.26960235 -0.04540316 306.87330328 -0.02412373 C311.26140679 -0.01362765 315.64926719 -0.00946674 320.03736877 -0.02272034 C324.05809486 -0.0346804 328.07835358 -0.02802258 332.09903754 -0.00681013 C333.5498369 -0.00235924 335.00067611 -0.00457619 336.45144962 -0.01431328 C345.27059055 -0.06894181 354.2772364 0.0063707 361.18643653 6.21542311 C362.73480191 7.89475047 364.01555392 9.61213983 365.28640747 11.50793457 C365.90515747 12.37418457 366.52390747 13.24043457 367.16140747 14.13293457 C369.59079518 21.42109769 369.40682477 29.01458375 366.16140747 36.00793457 C362.38177533 42.52199331 358.01704723 45.60222086 350.87899888 47.88612902 C346.22345765 49.0027112 341.60604323 48.92896271 336.83998108 48.90666199 C335.71748146 48.91330881 334.59498184 48.91995564 333.43846709 48.92680389 C329.69359543 48.94539143 325.94904447 48.94283137 322.20413208 48.94030762 C319.51316992 48.94932736 316.82223614 48.95952453 314.13128662 48.97119141 C308.3463017 48.99393377 302.56137682 49.00585496 296.77635002 49.01032066 C288.41230177 49.01679303 280.04836185 49.03974946 271.68435735 49.06666396 C258.11267643 49.10989149 244.54100008 49.13988125 230.9692688 49.16149902 C217.78955845 49.18252082 204.60988548 49.20980638 191.4302063 49.2454834 C190.61712102 49.24768222 189.80403574 49.24988105 188.96631151 49.2521465 C184.88709548 49.26321646 180.8078798 49.27440921 176.72866428 49.28566301 C142.91460994 49.37879098 109.10054105 49.4504154 75.28640747 49.50793457 C77.78205998 52.03310262 80.28373198 54.5522283 82.78640747 57.07043457 C83.48250122 57.77490723 84.17859497 58.47937988 84.89578247 59.2052002 C88.97965679 63.30798134 93.15153291 67.23280429 97.55142212 70.99560547 C100.09649031 73.21405687 102.42743251 75.59211684 104.78640747 78.00793457 C108.35967349 81.63509046 111.98452671 85.10050016 115.93627644 88.31503487 C117.86384292 90.11364095 119.37933866 91.82337819 121.00667858 93.87367058 C126.30086021 100.27117367 130.98811444 105.11532559 139.52280581 106.07195592 C144.24324707 106.30681107 148.92988547 106.24218333 153.65286255 106.12561035 C155.77823559 106.12497418 157.90361817 106.13057577 160.02896118 106.14189148 C165.7635719 106.15548212 171.49429607 106.08398555 177.22815156 105.99765253 C183.24428937 105.92298365 189.26029157 105.9313917 195.27680969 105.93173218 C206.66319122 105.92060992 218.04796916 105.84180148 229.43382043 105.73541629 C249.83168799 105.54747431 270.23024024 105.48396505 290.62884444 105.43193233 C297.7820159 105.41111706 304.93437523 105.36359184 312.08722556 105.2931416 C316.53658383 105.25222546 320.98594405 105.22707494 325.43543243 105.20520973 C327.49418571 105.19139989 329.55290608 105.17058589 331.61150932 105.14215279 C334.42795038 105.10397855 337.2434996 105.09073361 340.06016541 105.0831604 C340.86873594 105.06585031 341.67730647 105.04854021 342.51037914 105.03070557 C349.70190626 105.05715097 355.83097447 107.46810377 361.59890747 111.75793457 C366.73668577 117.01519609 368.52736106 121.49605755 368.84890747 128.88293457 C368.60184294 135.35153318 367.3291801 140.3781053 363.28640747 145.50793457 C356.28708422 151.78437689 350.76128672 153.63530632 341.45906067 153.62818909 C340.78508596 153.62904351 340.11111125 153.62989794 339.41671306 153.63077825 C337.16581239 153.63242103 334.91498679 153.62693142 332.66409302 153.62145996 C331.04761253 153.6211778 329.43113191 153.62133638 327.81465149 153.62190247 C323.43077862 153.62218933 319.04693313 153.61631053 314.66306663 153.60932851 C310.0799802 153.60307649 305.49689314 153.60248971 300.9138031 153.6013031 C292.23705158 153.59819524 283.56031265 153.58998919 274.88356668 153.57995361 C265.00455939 153.56877556 255.12555151 153.56327775 245.24653947 153.55825818 C224.92648844 153.54780613 204.60644875 153.53021723 184.28640747 153.50793457 C184.28640747 154.16793457 184.28640747 154.82793457 184.28640747 155.50793457 C184.85842896 155.75325928 185.43045044 155.99858398 186.01980591 156.25134277 C188.67377544 157.7226893 190.4313993 159.44345858 192.55203247 161.61340332 C193.36027466 162.43260254 194.16851685 163.25180176 195.00125122 164.0958252 C195.83785278 164.95369629 196.67445435 165.81156738 197.53640747 166.69543457 C202.64964392 171.91703631 207.76674545 177.00646977 213.31668091 181.76306152 C217.73646476 185.67830634 221.79566173 189.98092753 225.93093872 194.19152832 C229.90786281 198.21207498 233.97390281 202.02025759 238.259552 205.70812988 C241.98971071 209.02043173 245.46817939 212.58647864 248.97390747 216.13293457 C249.7067395 216.87027832 250.43957153 217.60762207 251.1946106 218.36730957 C254.145302 221.33662572 257.09136875 224.31039891 260.03250122 227.28918457 C262.18122771 229.40439539 264.39122326 231.39951047 266.66140747 233.38293457 C271.96361438 238.11192992 276.95839582 243.11967856 281.93240356 248.19104004 C284.67406434 250.97056705 287.40436461 253.67406392 290.42703247 256.14855957 C293.23552732 258.4659515 295.72789289 260.91915291 298.28640747 263.50793457 C299.1139856 264.3355127 299.94156372 265.16309082 300.79421997 266.01574707 C320.28640747 285.50793457 320.28640747 285.50793457 322.94509888 288.18029785 C325.44698142 290.66757086 328.03814732 293.02420486 330.66140747 295.38293457 C336.2475156 300.44479159 341.58231832 305.73348606 346.85818481 311.11682129 C349.88005177 314.18161014 352.94510894 317.12181349 356.20828247 319.92980957 C361.39590811 324.405359 366.13329486 329.30649569 370.93093872 334.19152832 C374.2384045 337.53527344 377.55520367 340.79367928 381.13015747 343.85168457 C386.98142458 348.8859606 392.30768263 354.47240944 397.72293091 359.96496582 C402.78402916 365.09170289 407.87059758 370.11035282 413.34744263 374.79602051 C417.05548007 378.06985059 420.49789224 381.61653668 423.97390747 385.13293457 C425.07315552 386.2389502 425.07315552 386.2389502 426.1946106 387.36730957 C429.14400413 390.33531966 432.08878297 393.30777642 435.02859497 396.28527832 C437.19915737 398.42204304 439.43231456 400.43979433 441.72390747 402.44543457 C446.71534923 406.89968081 451.43377753 411.59034127 456.11233521 416.37097168 C459.02745689 419.33010159 461.99177154 422.15828987 465.14187622 424.86730957 C469.8120569 428.90034096 474.13627126 433.24803158 478.47390747 437.63293457 C479.25443481 438.41797363 480.03496216 439.2030127 480.83914185 440.01184082 C482.33609006 441.51767677 483.83084428 443.02569806 485.32302856 444.53625488 C486.49620368 445.71438995 487.67845349 446.88375054 488.87869263 448.03430176 C491.45304722 450.50213784 492.63257574 452.20027111 494.28640747 455.50793457 C497.91640747 455.50793457 501.54640747 455.50793457 505.28640747 455.50793457 C505.28526831 454.58591387 505.28412915 453.66389317 505.28295547 452.71393245 C505.21573652 398.0932113 505.16436342 343.47249397 505.13321148 288.85173976 C505.12945927 282.29646413 505.12557631 275.74118859 505.12161255 269.18591309 C505.12082562 267.8808506 505.12003869 266.57578812 505.11922791 265.23117829 C505.10616645 244.08711951 505.08250852 222.94308514 505.05494908 201.79904085 C505.0269155 180.11068057 505.01023554 158.4223331 505.00414199 136.73395544 C505.0000213 123.34615427 504.98699649 109.95842211 504.96265807 96.57064218 C504.94682615 87.39583557 504.94200134 78.22106474 504.94590334 69.04624545 C504.94782884 63.7492589 504.94483318 58.45239312 504.92879105 53.15542793 C504.9142158 48.3075061 504.9134397 43.45978651 504.92371079 38.61185545 C504.92498064 36.85669135 504.92115503 35.10151474 504.91175792 33.34637534 C504.89973278 30.96202263 504.9061988 28.57840167 504.91726398 26.19406033 C504.90938294 25.51135046 504.9015019 24.8286406 504.89338204 24.12524256 C504.96970072 16.8562248 507.7555551 11.34754947 512.64968872 6.08605957 C517.82253497 1.09839875 521.53797578 0.20316876 528.66140747 -0.11706543 C537.31116616 0.11393703 541.84583427 2.88627857 547.66140747 9.00793457 C551.2831933 14.57991276 552.72800432 18.88977159 552.66951752 25.53001118 C552.67447703 26.32439676 552.67943655 27.11878234 552.68454635 27.93724021 C552.69751727 30.6036523 552.68911307 33.26956485 552.68081665 35.93598938 C552.68570485 37.86516367 552.69189432 39.79433502 552.69927454 41.72350138 C552.71570629 47.02855018 552.71334952 52.33345069 552.70789957 57.63851607 C552.70523335 63.35849123 552.71975353 69.07842651 552.73199463 74.79838562 C552.75306834 86.00614967 552.75758836 97.21386201 552.75580674 108.42164353 C552.75450005 117.53041226 552.75829852 126.63916484 552.76573181 135.74793053 C552.76783097 138.36990553 552.76992857 140.99188053 552.77202463 143.61385554 C552.77358992 145.57129828 552.77358992 145.57129828 552.77518684 147.56828531 C552.78872377 165.24328499 552.79631173 182.9182771 552.79186249 200.59328175 C552.79169053 201.28453729 552.79151858 201.97579283 552.79134141 202.6879955 C552.79045252 206.19156395 552.78950771 209.69513239 552.7885434 213.19870082 C552.78835237 213.89452177 552.78816134 214.59034272 552.78796452 215.30724915 C552.78757742 216.71436863 552.7871871 218.12148811 552.78679354 219.52860758 C552.78082401 241.42158073 552.79625921 263.31444816 552.82839966 285.20739746 C552.86447892 309.80419217 552.88376518 334.40091348 552.87886095 358.99773711 C552.87661482 372.02122122 552.88188041 385.04460054 552.90675354 398.06806374 C552.92774896 409.15574892 552.93137607 420.24327185 552.91245395 431.33096365 C552.90328524 436.98879846 552.90218814 442.64633062 552.9228096 448.304142 C552.94147995 453.48389813 552.93706 458.66310289 552.91426378 463.84283777 C552.91006809 465.71629281 552.91431049 467.5897898 552.92785972 469.46320055 C553.05554265 488.40832176 553.05554265 488.40832176 545.56031942 496.33289939 C538.40868318 503.32054705 530.15653039 503.96818351 520.63015747 503.94152832 C519.52845215 503.94677017 518.42674683 503.95201202 517.29165649 503.95741272 C514.97204427 503.96381045 512.6523995 503.96252524 510.33279419 503.95397949 C506.79721033 503.9454606 503.26323871 503.97427911 499.72781372 504.00598145 C497.46609545 504.00759353 495.20437434 504.0070158 492.94265747 504.00402832 C491.89348145 504.0152623 490.84430542 504.02649628 489.76333618 504.03807068 C480.18178512 503.94770157 474.46654991 501.08569689 467.53640747 494.50793457 C466.78605225 493.802052 466.78605225 493.802052 466.02053833 493.08190918 C461.71773145 489.00447145 457.52322618 484.81067586 453.38308716 480.56848145 C450.5046494 477.63603547 447.4954897 475.06604608 444.28640747 472.50793457 C442.59543471 470.86593376 440.93275846 469.19467224 439.28640747 467.50793457 C436.52007521 464.71179426 433.74663429 461.92273183 430.97390747 459.13293457 C430.252677 458.4033252 429.53144653 457.67371582 428.7883606 456.92199707 C425.41723444 453.53575376 422.02937301 450.23418127 418.39968872 447.12512207 C412.27999454 441.85683081 406.72872925 435.99247044 401.06375122 430.24621582 C396.58713112 425.7304986 392.07152954 421.37341685 387.24295044 417.23742676 C383.5305355 413.95582613 380.08087531 410.40535422 376.59890747 406.88293457 C375.86607544 406.14559082 375.13324341 405.40824707 374.37820435 404.64855957 C371.45866172 401.71058881 368.54349012 398.76842479 365.63406372 395.82043457 C362.95801304 393.18445786 360.19119214 390.65793438 357.41140747 388.13293457 C348.86031441 380.30813627 340.75085704 372.04417983 332.61062622 363.79699707 C330.4993777 361.7176834 328.33501853 359.76328517 326.09890747 357.82043457 C320.11433672 352.48381734 314.50577784 346.78178402 308.8833313 341.06774902 C305.46821396 337.6137428 302.04499553 334.24094799 298.35671997 331.07824707 C292.47799487 326.02460619 287.14473299 320.40956805 281.70828247 314.89074707 C277.34230417 310.48459106 272.92437608 306.25198597 268.21609497 302.21496582 C264.03400226 298.51542227 260.19426321 294.45305312 256.28640747 290.46887207 C253.05666549 287.20128155 249.80129122 284.03641125 246.31765747 281.03918457 C241.1432577 276.58232852 236.42390178 271.69347067 231.64187622 266.82434082 C227.64096493 262.77954385 223.54958707 258.94638801 219.23757935 255.2364502 C215.27644748 251.72733938 211.63185051 247.89222904 207.93093872 244.11340332 C204.82781934 240.97125099 201.68916673 237.94401782 198.34109497 235.06262207 C193.97567433 231.29932842 189.9469176 227.24415783 185.91140747 223.13293457 C184.51008 221.70617466 183.10654397 220.2815795 181.70046997 218.85949707 C181.09154907 218.23897461 180.48262817 217.61845215 179.85525513 216.97912598 C178.33517286 215.41331495 178.33517286 215.41331495 176.28640747 214.50793457 C176.28640747 213.84793457 176.28640747 213.18793457 176.28640747 212.50793457 C175.72252319 212.27074707 175.15863892 212.03355957 174.57766724 211.78918457 C171.76885887 210.21852647 169.87809826 208.3073062 167.62625122 206.00793457 C166.31237427 204.67762207 166.31237427 204.67762207 164.97195435 203.32043457 C164.06509888 202.39230957 163.15824341 201.46418457 162.22390747 200.50793457 C160.42277613 198.67238671 158.61948683 196.83895314 156.81375122 195.00793457 C156.01703003 194.19324707 155.22030884 193.37855957 154.39944458 192.53918457 C152.25964772 190.36245636 152.25964772 190.36245636 149.28640747 188.50793457 C149.28640747 187.84793457 149.28640747 187.18793457 149.28640747 186.50793457 C148.71349976 186.26172363 148.14059204 186.0155127 147.55032349 185.76184082 C144.91422024 184.3017927 143.16894207 182.60026831 141.06375122 180.44543457 C139.88522583 179.25047363 139.88522583 179.25047363 138.68289185 178.03137207 C137.871427 177.1986377 137.05996216 176.36590332 136.22390747 175.50793457 C134.61029069 173.85987695 132.99449825 172.21394593 131.37625122 170.57043457 C130.66331909 169.83953613 129.95038696 169.1086377 129.21585083 168.35559082 C127.22285189 166.33928924 127.22285189 166.33928924 124.28640747 164.50793457 C124.28640747 163.84793457 124.28640747 163.18793457 124.28640747 162.50793457 C123.70987427 162.25809814 123.13334106 162.00826172 122.53933716 161.75085449 C119.97177396 160.33435425 118.28650979 158.7187149 116.23953247 156.62121582 C115.09484497 155.46009277 115.09484497 155.46009277 113.92703247 154.2755127 C113.13812622 153.46533691 112.34921997 152.65516113 111.53640747 151.82043457 C106.59613046 146.76900133 101.63656336 141.87196783 96.27371216 137.27038574 C91.84975429 133.34697642 87.78316702 129.04106497 83.64187622 124.82434082 C80.29338224 121.43911748 76.92980078 118.14348199 73.31765747 115.03918457 C67.91220136 110.38847258 62.99331947 105.26103961 57.99734497 100.17980957 C53.8812286 96.02125901 49.68801869 92.06310639 45.25125122 88.25012207 C41.06069413 84.53443924 37.20625335 80.46527744 33.28640747 76.46887207 C30.01798526 73.16214804 26.72408007 69.98145115 23.18093872 66.96887207 C20.56939445 64.72931548 18.29898643 62.45077399 16.11062622 59.79699707 C9.65515376 51.95796137 9.65515376 51.95796137 0.43875122 48.52355957 C-2.82341195 48.33361642 -6.00880002 48.4516977 -9.26828003 48.62512207 C-15.13003028 48.80302138 -19.35520886 46.29863651 -23.92062378 42.83215332 C-29.18899435 37.46123539 -31.82427306 32.73569913 -32.08859253 25.07043457 C-31.83450171 17.33125183 -29.58674812 12.08533901 -24.70187378 6.14855957 C-17.00439871 -0.20299157 -9.58608361 -0.06412326 0 0 Z " fill="#020202" transform="translate(251.71359252929688,210.4920654296875)"/>
<path d="M0 0 C6.9415137 3.47075685 12.13595926 9.1251886 17.50708008 14.6015625 C19.27548409 16.33968799 21.09861549 17.94653505 22.98828125 19.55078125 C27.92085327 23.83854294 32.47958106 28.46973822 37.0625 33.125 C38.70981982 34.79795904 40.35948586 36.46861173 42.01171875 38.13671875 C42.73061279 38.86721436 43.44950684 39.59770996 44.19018555 40.3503418 C46.35963677 42.48593872 46.35963677 42.48593872 48.83520508 44.39379883 C51.55375401 46.5813383 53.9402619 48.93949405 56.375 51.4375 C57.16181152 52.22954834 57.94862305 53.02159668 58.75927734 53.83764648 C59.97284912 55.06076538 59.97284912 55.06076538 61.2109375 56.30859375 C63.05721985 58.16413396 64.90357621 60.01960054 66.75 61.875 C67.67039062 62.80376953 68.59078125 63.73253906 69.5390625 64.68945312 C73.85932835 69.0251485 78.18417218 73.24789049 82.88525391 77.16845703 C85.18471571 79.12725783 87.26822921 81.27476811 89.375 83.4375 C91.70431797 85.79565313 94.03996883 88.14750599 96.375 90.5 C96.97828125 91.11166016 97.5815625 91.72332031 98.203125 92.35351562 C101.45195211 95.61999941 104.7579495 98.57598472 108.375 101.4375 C110.06403497 103.08149404 111.72782453 104.75156746 113.375 106.4375 C114.57155617 107.63677562 115.76958485 108.83458311 116.96875 110.03125 C119.57291667 112.63541667 122.17708333 115.23958333 124.78125 117.84375 C125.4004834 118.46233887 126.0197168 119.08092773 126.65771484 119.71826172 C128.11246427 121.17466568 129.56084823 122.63742358 131.0078125 124.1015625 C133.52386885 126.58440359 136.12155536 128.9491086 138.75 131.3125 C147.12234577 138.90772786 155.00902818 146.99813343 162.9453125 155.04296875 C165.6692948 157.72753652 168.48300423 160.30324565 171.3125 162.875 C176.82094829 167.91240952 182.13371729 173.11704757 187.35327148 178.45288086 C190.19673742 181.34050395 193.09104734 184.09167503 196.16796875 186.73046875 C202.08408523 191.84064826 207.47069017 197.48918548 212.953125 203.0546875 C217.30903106 207.45067858 221.71676936 211.67162001 226.4140625 215.69921875 C230.82975088 219.61352419 234.88682286 223.91310834 239.01953125 228.12109375 C243.02044254 232.16589072 247.11182041 235.99904656 251.42382812 239.70898438 C254.72552645 242.63391232 257.78808228 245.78935149 260.875 248.9375 C265.19591697 253.30497515 269.52200523 257.5438392 274.22265625 261.50390625 C278.05458233 264.94638068 281.62001916 268.66416402 285.24243164 272.32446289 C288.20456982 275.30567318 291.16216434 278.2232078 294.375 280.9375 C298.8858573 284.74839669 302.97392706 288.98482029 307.1015625 293.20117188 C310.0762503 296.22000459 313.10054898 299.10845625 316.3125 301.875 C321.26494174 306.14994008 325.79677931 310.80892343 330.375 315.4765625 C333.55357545 318.69238688 336.7506469 321.81012566 340.1875 324.75 C346.04731633 329.79722461 351.38578041 335.3913303 356.81152344 340.89453125 C361.886663 346.03549174 366.98797891 351.06736485 372.48046875 355.765625 C376.65420408 359.44883886 380.4791637 363.50463565 384.375 367.4765625 C387.53310823 370.67167981 390.70676228 373.77069798 394.125 376.6875 C400.41260892 382.1031944 406.13094912 388.13843365 411.95703125 394.04003906 C418.96075299 401.18551263 418.96075299 401.18551263 426.35546875 407.91796875 C432.12764351 412.84230403 437.36018225 418.35523769 442.6875 423.75 C444.82652309 425.91566178 446.96888197 428.07794431 449.11328125 430.23828125 C449.59767166 430.73097 450.08206207 431.22365875 450.58113098 431.73127747 C454.81398405 436.11642122 454.81398405 436.11642122 460.51576233 437.6890564 C462.45907692 437.69094467 462.45907692 437.69094467 464.44165039 437.69287109 C465.15754333 437.69649155 465.87343628 437.700112 466.61102295 437.70384216 C468.16607959 437.71073514 469.72116043 437.71324178 471.27623177 437.71189499 C473.74514657 437.7109287 476.21362718 437.72388698 478.68247986 437.74087524 C485.70226602 437.78709519 492.72201032 437.81171999 499.74194336 437.81835938 C504.0379601 437.82340194 508.33352833 437.84779736 512.62939262 437.88368607 C514.2594679 437.89342812 515.88960534 437.89584683 517.519701 437.89051437 C527.42165832 437.85966459 536.73404303 437.89038244 544.8125 444.40234375 C545.328125 445.05332031 545.84375 445.70429687 546.375 446.375 C546.91125 447.02339844 547.4475 447.67179687 548 448.33984375 C552.16286135 454.69057257 552.05879644 461.05600506 551.375 468.4375 C549.69074337 475.53696147 545.47001511 480.52237463 539.375 484.4375 C535.09606068 486.11450112 531.53666399 486.68837451 526.95313263 486.69197559 C525.67344715 486.69780779 524.39376166 486.70363998 523.07529783 486.70964891 C521.66254345 486.70601604 520.24978954 486.70219168 518.83703613 486.69819641 C517.3305799 486.70121766 515.8241252 486.70510701 514.31767321 486.70978898 C510.1812121 486.72008098 506.04483755 486.71788411 501.9083693 486.71360838 C497.44614108 486.71114338 492.98393382 486.72015245 488.52171326 486.72764587 C479.78146515 486.74040063 471.04124774 486.74218564 462.30099189 486.73984561 C455.19830284 486.73806336 448.09562312 486.73981008 440.99293518 486.74407005 C439.9824736 486.74466524 438.97201203 486.74526043 437.93093041 486.74587366 C435.878269 486.74708539 433.82560759 486.74829952 431.77294618 486.74951603 C412.52008489 486.76039431 393.26724112 486.75822756 374.01437885 486.75213119 C356.39427377 486.74696028 338.77422395 486.75822154 321.1541298 486.77722941 C303.06692716 486.79659182 284.97975067 486.80486671 266.89253759 486.80110615 C256.7358401 486.79919187 246.57918966 486.80170385 236.42250061 486.81582069 C227.77729383 486.82771504 219.13216307 486.82916121 210.48695529 486.81703053 C206.07509032 486.81112848 201.66336453 486.81007895 197.25150871 486.82203293 C193.21372192 486.8328464 189.17619129 486.82984278 185.13841671 486.81577124 C183.67685712 486.81311178 182.21527775 486.81552985 180.75373751 486.82350711 C178.76813619 486.8335935 176.78246282 486.82341198 174.79686737 486.81223011 C173.14198846 486.81231263 173.14198846 486.81231263 171.45367765 486.81239682 C165.55451524 486.09404385 160.35096629 482.81666287 156.375 478.4375 C151.97473172 471.29928701 150.58434953 464.79089411 151.375 456.4375 C153.15938122 449.87961486 157.74942821 445.06838375 163.375 441.4375 C169.31201573 438.83070322 174.05542755 438.00036255 180.49926758 438.03877258 C181.82646631 438.02880234 181.82646631 438.02880234 183.18047714 438.01863068 C186.12694751 438.00007013 189.07300932 438.0026013 192.01953125 438.00512695 C194.13891673 437.99610557 196.25829699 437.98577742 198.37767029 437.97424316 C204.11876282 437.94669146 209.8597563 437.93739107 215.60090637 437.93138909 C221.60539669 437.92200073 227.60981317 437.89579692 233.61425781 437.87138367 C244.97896064 437.82772781 256.34364912 437.79917517 267.70841026 437.77606028 C280.64914182 437.74900377 293.58979905 437.70509249 306.53047752 437.65977156 C333.14527804 437.56693832 359.76010187 437.49525147 386.375 437.4375 C383.54597124 434.57903993 380.71099221 431.72655016 377.875 428.875 C377.08351563 428.07513672 376.29203125 427.27527344 375.4765625 426.45117188 C371.12159106 422.07835219 366.7008993 417.85970704 362.01074219 413.84715271 C360.04071753 412.14942148 358.19519572 410.35676215 356.375 408.5 C355.715 407.83226562 355.055 407.16453125 354.375 406.4765625 C353.04166667 405.1171875 351.70833333 403.7578125 350.375 402.3984375 C347.1657246 399.1515534 343.93363129 396.00558977 340.46875 393.03125 C334.81484827 388.16138542 329.67210141 382.7794987 324.44140625 377.46484375 C320.87654658 373.8653177 317.31973001 370.32536732 313.46875 367.03125 C307.63451342 362.02299706 302.3327193 356.45171971 296.93847656 350.98046875 C290.33876388 344.26701874 290.33876388 344.26701874 283.375 337.9375 C277.56613392 332.96861252 272.30116785 327.41971783 266.93847656 321.98046875 C261.863337 316.83950826 256.76202109 311.80763515 251.26953125 307.109375 C247.09579592 303.42616114 243.2708363 299.37036435 239.375 295.3984375 C236.17595786 292.16190659 232.9555249 289.02536975 229.5 286.0625 C223.60637086 280.98615146 218.25173235 275.3578192 212.796875 269.8203125 C209.10347283 266.09292196 205.42642424 262.41211442 201.4375 259 C195.611744 254.00482367 190.32220811 248.44105847 184.93847656 242.98046875 C179.863337 237.83950826 174.76202109 232.80763515 169.26953125 228.109375 C165.09579592 224.42616114 161.2708363 220.37036435 157.375 216.3984375 C154.14872668 213.13435629 150.89699183 209.97156623 147.41796875 206.9765625 C142.95690965 203.13349033 138.82516023 198.99822956 134.6875 194.8125 C133.95466797 194.07515625 133.22183594 193.3378125 132.46679688 192.578125 C129.54984998 189.64276636 126.63725152 186.70323787 123.73046875 183.7578125 C121.010091 181.0780374 118.19921915 178.50634451 115.375 175.9375 C110.11339183 171.12375265 105.02252803 166.16941895 100.04101562 161.06640625 C97.36794984 158.34803427 94.6386717 155.77624991 91.73828125 153.30078125 C85.4198099 147.83731686 79.65744884 141.77546207 73.79296875 135.83496094 C68.46141964 130.44057099 63.13335025 125.12618523 57.359375 120.19921875 C52.26023671 115.67222787 47.57985758 110.67576451 42.796875 105.8203125 C38.54127923 101.52555481 34.24772199 97.39393535 29.64599609 93.47387695 C26.87072742 90.98532438 24.24459943 88.3607523 21.62109375 85.71484375 C21.11477417 85.20626831 20.60845459 84.69769287 20.08679199 84.17370605 C18.84837827 82.92944731 17.61152885 81.68363193 16.375 80.4375 C16.37516235 81.25182361 16.3753247 82.06614723 16.37549198 82.90514731 C16.38435625 131.17989561 16.36201523 179.45454363 16.29920971 227.72925465 C16.29169376 233.52702235 16.28443825 239.32479036 16.27734375 245.12255859 C16.27521862 246.85388888 16.27521862 246.85388888 16.27305056 248.62019554 C16.25073848 267.30359868 16.24951999 285.98694659 16.25611137 304.67035934 C16.2624058 323.84451807 16.24599857 343.0185607 16.20856392 362.19268441 C16.186183 374.02202091 16.18146117 385.85109282 16.19940336 397.68043801 C16.21001369 405.79477683 16.19855182 413.90889849 16.16983847 422.02319267 C16.15392621 426.70321863 16.14764496 431.38272778 16.16760826 436.06274986 C16.18569354 440.35301155 16.17587425 444.6422982 16.14446117 448.93247464 C16.13795463 450.47910259 16.14142634 452.02581401 16.15625392 453.57238457 C16.2420303 463.23925 15.20379047 471.38271132 9.375 479.4375 C1.63677714 486.07223386 -4.56566563 487.11052596 -14.625 486.4375 C-20.6497793 485.00753493 -25.16515427 481.39786426 -28.8125 476.5 C-31.97851345 471.15052899 -32.91788173 466.98721547 -32.87947559 460.80117321 C-32.88268207 460.03634423 -32.88588855 459.27151525 -32.88919219 458.48350963 C-32.89751661 455.91171605 -32.89155938 453.34015387 -32.88569641 450.76835632 C-32.88871599 448.90945606 -32.89260449 447.05055704 -32.89728898 445.19166023 C-32.90760284 440.07627078 -32.90537854 434.96095116 -32.90110838 429.8455559 C-32.89864727 424.3314574 -32.90764769 418.81737599 -32.91514587 413.30328369 C-32.92791236 402.4974496 -32.92968411 391.69164033 -32.92734561 380.88579997 C-32.92556435 372.10404279 -32.92730796 363.32229316 -32.93157005 354.54053688 C-32.93216524 353.29183619 -32.93276043 352.04313551 -32.93337366 350.75659541 C-32.93458538 348.22004192 -32.93579951 345.68348844 -32.93701603 343.14693496 C-32.94480644 326.10863836 -32.94872016 309.07034426 -32.94469929 292.03204632 C-32.94454291 291.36560817 -32.94438654 290.69917002 -32.94422542 290.01253677 C-32.94341963 286.63471087 -32.94257386 283.25688498 -32.94171212 279.8790591 C-32.94154103 279.20820459 -32.94136994 278.53735008 -32.94119367 277.84616664 C-32.94084702 276.48953508 -32.94049849 275.13290353 -32.94014808 273.77627197 C-32.93479135 252.66894669 -32.94271932 231.56166319 -32.96118164 210.4543457 C-32.98189724 186.74313328 -32.99259404 163.03194313 -32.98860615 139.32071906 C-32.98669191 126.76508953 -32.9892033 114.20949806 -33.00332069 101.65387535 C-33.01521797 90.96435308 -33.01665801 80.27489229 -33.00453053 69.58536919 C-32.99863004 64.13026059 -32.9975747 58.67526454 -33.00953293 53.22016335 C-33.02035181 48.22681412 -33.01733603 43.23367196 -33.00327124 38.24033258 C-33.00061327 36.4334877 -33.00302523 34.6266268 -33.01100711 32.8197976 C-33.02110568 30.36339859 -33.01269785 27.9077204 -32.99973011 25.45135021 C-33.00703946 24.75023576 -33.0143488 24.04912132 -33.02187964 23.32676098 C-32.94323631 16.1374312 -30.77558271 9.58808271 -25.625 4.4375 C-17.59570042 -1.30003593 -9.57729297 -3.89077527 0 0 Z " fill="#020202" transform="translate(252.625,326.5625)"/>
<path d="M0 0 C4.81978628 4.55360479 8.64884443 9.00388812 9.24839699 15.82673055 C9.24763755 16.8698223 9.24687811 17.91291404 9.24609566 18.98761463 C9.25007775 20.19585795 9.25405985 21.40410127 9.25816262 22.64895803 C9.25245696 23.98625376 9.24656577 25.32354871 9.24050903 26.6608429 C9.24138124 28.08409028 9.24313249 29.50733735 9.24568737 30.9305827 C9.25016202 34.84146845 9.24215559 38.75224477 9.23213124 42.66311657 C9.22350076 46.88051864 9.22641662 51.09791446 9.22793579 55.31532288 C9.2289849 62.62224606 9.22270562 69.92913354 9.21146011 77.23604774 C9.19521155 87.80063671 9.18999777 98.36520841 9.18748413 108.92980852 C9.18310602 126.06983331 9.16979376 143.20983906 9.15087891 160.34985352 C9.13252312 177.00056869 9.11836514 193.6512787 9.10986328 210.30200195 C9.10907511 211.84132125 9.10907511 211.84132125 9.10827102 213.4117379 C9.10566096 218.5599052 9.10313354 223.70807255 9.10064721 228.85623991 C9.07991109 271.57083979 9.04468239 314.28541891 9 357 C6.5 355.625 6.5 355.625 4 354 C4 353.34 4 352.68 4 352 C3.13375 351.6596875 3.13375 351.6596875 2.25 351.3125 C-0.59530878 349.65273655 -1.93653334 347.57933333 -4 345 C-7.94870876 341.10586735 -12.14953864 337.87119737 -16.8355341 334.9085862 C-26.94063253 328.32749062 -36.52344066 319.83842778 -39.87726593 307.86918402 C-43.45895142 289.43028461 -42.36870314 269.92339479 -41.95433587 251.23326024 C-41.77824582 243.06993333 -41.75548702 234.90807392 -41.73858893 226.74312562 C-41.70407441 212.17593309 -41.5461166 197.61284525 -41.31152344 183.04760742 C-41.08456497 168.94370831 -40.92914072 154.84166774 -40.86035156 140.73608398 C-40.85608504 139.86468086 -40.85181853 138.99327773 -40.84742272 138.09546845 C-40.83045625 134.59176765 -40.81371942 131.08806586 -40.79735094 127.58436221 C-40.72504729 112.46010437 -40.59718269 97.33623651 -40.45935774 82.21245232 C-40.43746616 79.77357403 -40.41669296 77.3346882 -40.39612198 74.89579844 C-40.32270064 66.36401769 -40.2316056 57.83291577 -40.09436321 49.30189925 C-40.03768924 45.77853654 -39.98803499 42.25551641 -39.95940018 38.73180389 C-39.9277777 34.90664186 -39.85740108 31.08274439 -39.78295898 27.25816345 C-39.77910596 26.1539884 -39.77525293 25.04981336 -39.77128315 23.91217846 C-39.54777411 15.22299465 -37.15595121 8.70824268 -31.5 2.0625 C-22.67063831 -5.2217234 -9.59379741 -7.13079352 0 0 Z " fill="#030303" transform="translate(696,215)"/>
<path d="M0 0 C0.66 0 1.32 0 2 0 C3.36176922 1.64351457 4.68962066 3.31522656 6 5 C9.17466567 8.27038424 12.47255468 11.34485873 15.875 14.375 C23.63295303 21.36724643 30.9155393 28.86367317 38.25341797 36.29052734 C38.74855896 36.78989807 39.24369995 37.2892688 39.75384521 37.80377197 C41.12191222 39.18377199 42.48706533 40.56665892 43.85205078 41.94970703 C45.8269268 44.03599701 45.8269268 44.03599701 48 45 C48.09131479 75.53173372 48.16207189 106.06343612 48.20426132 136.59527384 C48.20926395 140.20251352 48.21444126 143.80975292 48.21972656 147.41699219 C48.2207758 148.13510724 48.22182505 148.8532223 48.22290608 149.59309842 C48.24029579 161.20996624 48.27182553 172.82675462 48.30861118 184.44357537 C48.3460606 196.36976957 48.36824429 208.29592227 48.37635398 220.22217286 C48.38134268 226.91835832 48.39380738 233.61435268 48.42292023 240.31048203 C48.45011122 246.61578003 48.45843738 252.92082424 48.45243073 259.22617531 C48.4535293 261.53762123 48.46146092 263.84907582 48.4768219 266.16047096 C48.49680692 269.32334401 48.4919076 272.48526648 48.48101807 275.64816284 C48.49266943 276.55675297 48.5043208 277.46534309 48.51632524 278.40146625 C48.43885333 286.76138812 46.03894978 294.96105022 40 301 C33.43930839 305.92051871 28.04523157 306.66060552 20 306 C13.03846456 304.50667379 8.29084513 301.87991959 3.8125 296.25 C-0.31749245 288.84449629 -0.28490617 281.49167892 -0.24050903 273.21826172 C-0.24221788 272.0476139 -0.24392673 270.87696608 -0.24568737 269.67084408 C-0.24840239 266.4394099 -0.2421887 263.20813797 -0.23213124 259.97672296 C-0.22346614 256.48535194 -0.22641906 252.993988 -0.22793579 249.50260925 C-0.22898271 243.45949528 -0.22272631 237.41642461 -0.21146011 231.37332153 C-0.19518188 222.63609645 -0.18999473 213.89889224 -0.18748413 205.16165364 C-0.18311067 190.98487312 -0.16981105 176.80811566 -0.15087891 162.63134766 C-0.13251107 148.86279414 -0.11835899 135.09424689 -0.10986328 121.32568359 C-0.10933783 120.47649164 -0.10881239 119.62729969 -0.10827102 118.75237465 C-0.10566088 114.49207946 -0.10313348 110.23178422 -0.10064721 105.97148895 C-0.07992559 70.64764286 -0.04470957 35.32382356 0 0 Z " fill="#030303" transform="translate(319,507)"/>
<path d="M0 0 C2.31 1.98 4.62 3.96 7 6 C6.34 6.66 5.68 7.32 5 8 C3.35 6.68 1.7 5.36 0 4 C-0.66 4.66 -1.32 5.32 -2 6 C-2 3 -2 3 0 0 Z " fill="#0E0E0E" transform="translate(373,441)"/>
<path d="M0 0 C0.66 0.33 1.32 0.66 2 1 C1.50628906 1.55429688 1.01257813 2.10859375 0.50390625 2.6796875 C-0.13675781 3.40414062 -0.77742187 4.12859375 -1.4375 4.875 C-2.07558594 5.59429687 -2.71367188 6.31359375 -3.37109375 7.0546875 C-5.05014465 8.90750491 -5.05014465 8.90750491 -6 11 C-6.66 11 -7.32 11 -8 11 C-6.60366572 6.55711819 -4.39598172 4.13475236 -1 1 C-0.67 0.67 -0.34 0.34 0 0 Z " fill="#222222" transform="translate(668,214)"/>
<path d="M0 0 C1.32 1.32 2.64 2.64 4 4 C1 6 1 6 -1.1875 5.625 C-1.785625 5.41875 -2.38375 5.2125 -3 5 C-2.01 3.35 -1.02 1.7 0 0 Z " fill="#0C0C0C" transform="translate(589,513)"/>
<path d="M0 0 C1.65 1.65 3.3 3.3 5 5 C3.68 5.33 2.36 5.66 1 6 C0.34 4.35 -0.32 2.7 -1 1 C-0.67 0.67 -0.34 0.34 0 0 Z " fill="#0A0A0A" transform="translate(355,288)"/>
<path d="M0 0 C1.98 1.65 3.96 3.3 6 5 C5.34 5.66 4.68 6.32 4 7 C2.35 5.02 0.7 3.04 -1 1 C-0.67 0.67 -0.34 0.34 0 0 Z " fill="#DCDCDC" transform="translate(355,539)"/>
</svg>
